<?xml version="1.0" standalone="no"?>
<!DOCTYPE svg PUBLIC "-//W3C//DTD SVG 20010904//EN"
 "http://www.w3.org/TR/2001/REC-SVG-20010904/DTD/svg10.dtd">
<svg version="1.0" xmlns="http://www.w3.org/2000/svg"
 width="2000.000000pt" height="2000.000000pt" viewBox="0 0 2000.000000 2000.000000"
 preserveAspectRatio="xMidYMid meet">

<g transform="translate(0.000000,2000.000000) scale(0.100000,-0.100000)"
fill="#000000" stroke="none">
<path d="M9425 17823 c-896 -76 -1655 -257 -2432 -580 l-202 -84 -491 192
c-271 105 -495 187 -500 183 -10 -12 -150 -372 -150 -388 0 -7 107 -55 253
-111 138 -54 276 -108 306 -120 l53 -22 -78 -43 c-358 -196 -857 -539 -1197
-825 -471 -394 -876 -822 -1242 -1310 -138 -184 -315 -437 -315 -449 0 -3 624
-6 1388 -6 l1387 1 105 90 c175 151 501 395 602 450 18 10 9 -12 -121 -284
l-60 -128 62 -28 c34 -16 123 -58 198 -94 l136 -65 89 187 c48 102 127 267
174 366 48 99 112 235 144 302 l58 121 82 38 c521 238 1192 415 1769 466 l137
12 0 1068 0 1068 -57 -2 c-32 -1 -76 -3 -98 -5z"/>
<path d="M16207 16743 c-4 -3 -7 -21 -7 -39 0 -41 -28 -74 -44 -52 -6 8 -21
27 -33 42 l-23 29 -95 -72 c-52 -39 -95 -76 -95 -82 0 -6 11 -24 25 -41 44
-52 35 -67 -35 -58 -59 8 -53 19 -73 -137 l-13 -102 50 -8 c65 -10 70 -31 17
-70 l-40 -29 75 -97 c41 -53 77 -97 80 -97 4 0 23 13 43 29 50 40 66 30 57
-38 -4 -28 -3 -51 1 -51 4 0 53 -7 108 -15 140 -20 131 -23 139 34 4 27 12 52
19 54 6 3 28 -14 48 -36 l36 -41 89 69 c49 38 93 72 98 76 4 4 -6 25 -24 47
-42 52 -33 66 35 59 l52 -5 12 96 c6 54 14 109 17 124 5 26 3 27 -46 34 -61 8
-75 28 -39 55 67 49 68 35 -12 139 -40 52 -74 97 -76 99 -2 2 -22 -9 -46 -26
-57 -41 -69 -35 -61 33 4 30 3 54 -2 54 -5 0 -54 7 -109 15 -117 17 -120 17
-128 8z m143 -298 c39 -20 80 -76 87 -119 18 -109 -58 -198 -169 -198 -88 0
-168 79 -168 167 0 63 51 136 110 158 30 11 112 7 140 -8z"/>
<path d="M18115 16114 c-77 -7 -142 -13 -144 -13 -2 -1 -1 -30 1 -66 3 -55 1
-66 -14 -71 -21 -6 -45 6 -77 40 -14 14 -30 26 -37 26 -7 0 -58 -53 -114 -117
l-101 -117 51 -46 c59 -52 61 -80 5 -80 -18 0 -47 -3 -65 -7 l-33 -6 7 -96 c4
-53 9 -124 13 -158 l6 -63 67 6 c88 9 97 -8 40 -76 -22 -26 -40 -50 -40 -53 0
-5 67 -64 222 -195 16 -14 22 -11 59 32 64 72 89 60 89 -48 l0 -48 33 5 c17 3
82 9 142 12 156 9 148 5 143 81 -5 85 12 92 82 34 l49 -41 105 123 105 122
-50 46 c-58 52 -60 80 -4 80 18 0 47 3 65 6 l32 7 -5 71 c-4 39 -9 110 -13
158 l-7 88 -67 -6 c-89 -9 -98 8 -40 77 22 26 40 50 40 53 0 7 -231 206 -239
206 -4 0 -24 -20 -44 -45 -61 -72 -83 -61 -89 45 -2 31 -8 45 -18 46 -8 1 -78
-4 -155 -12z m141 -369 c89 -37 146 -152 124 -245 -27 -113 -111 -175 -225
-168 -52 3 -73 10 -107 34 -142 99 -117 319 42 383 38 15 126 13 166 -4z"/>
<path d="M14170 15403 l0 -546 203 6 c111 4 352 7 535 7 l332 0 0 45 0 45
-485 0 -485 0 0 450 0 450 625 0 625 0 0 -241 0 -240 50 42 50 42 0 244 0 243
-725 0 -725 0 0 -547z"/>
<path d="M14310 15695 l0 -125 180 0 181 0 -3 123 -3 122 -177 3 -178 2 0
-125z"/>
<path d="M14710 15695 l0 -125 185 0 185 0 0 125 0 125 -185 0 -185 0 0 -125z"/>
<path d="M15127 15813 c-4 -3 -7 -60 -7 -125 l0 -118 180 0 180 0 0 125 0 125
-173 0 c-96 0 -177 -3 -180 -7z"/>
<path d="M14310 15410 l0 -120 180 0 181 0 -3 118 -3 117 -177 3 -178 2 0
-120z"/>
<path d="M14710 15410 l0 -120 185 0 185 0 0 120 0 120 -185 0 -185 0 0 -120z"/>
<path d="M15127 15523 c-4 -3 -7 -57 -7 -120 l0 -113 146 0 c143 0 145 0 180
28 l34 27 0 93 0 92 -173 0 c-96 0 -177 -3 -180 -7z"/>
<path d="M14310 15125 l0 -125 180 0 181 0 -3 123 -3 122 -177 3 -178 2 0
-125z"/>
<path d="M14710 15125 l0 -125 185 0 185 0 0 125 0 125 -185 0 -185 0 0 -125z"/>
<path d="M15127 15243 c-4 -3 -7 -60 -7 -125 l0 -118 60 0 60 0 0 74 0 74 55
43 c30 24 54 47 55 52 0 9 -214 10 -223 0z"/>
<path d="M4371 12423 c108 -111 202 -230 260 -327 19 -31 36 -56 40 -56 3 0
23 44 44 98 21 53 67 160 102 236 35 77 63 144 63 148 0 4 -138 8 -307 8
l-306 0 104 -107z"/>
<path d="M10502 12463 c-135 -234 -487 -869 -484 -875 1 -5 85 -142 187 -305
102 -162 184 -296 183 -297 -282 -167 -417 -250 -414 -254 5 -5 1118 -54 1121
-50 8 11 504 982 502 984 -1 1 -95 -49 -209 -111 l-207 -113 -312 537 c-172
295 -315 540 -319 544 -5 5 -26 -22 -48 -60z"/>
<path d="M2110 11920 l0 -150 875 0 875 0 0 150 0 150 -155 0 -155 0 0 -40 0
-40 -565 0 -565 0 0 40 0 40 -155 0 -155 0 0 -150z"/>
<path d="M3358 10405 c-93 -35 -170 -114 -204 -207 -9 -24 -16 -76 -16 -116 0
-58 5 -83 26 -125 39 -81 89 -132 162 -168 127 -63 278 -38 381 63 159 156
114 434 -88 539 -56 29 -203 37 -261 14z m162 -201 c73 -29 101 -114 60 -181
-35 -58 -110 -79 -169 -49 -99 52 -83 203 25 236 40 12 39 12 84 -6z"/>
<path d="M8107 10286 c-235 -6 -427 -15 -428 -20 0 -6 292 -200 369 -245 9 -5
-78 -157 -313 -545 -180 -296 -325 -540 -322 -542 2 -2 245 -5 541 -6 l538 -3
169 299 c93 165 172 302 174 304 3 4 334 -185 413 -236 21 -14 21 -10 -11 59
-19 41 -132 271 -250 512 l-216 437 -118 -2 c-65 -1 -310 -6 -546 -12z"/>
<path d="M4240 9593 c-282 -244 -668 -410 -1052 -452 -303 -34 -667 21 -962
144 -17 7 -18 4 -12 -41 53 -435 84 -626 146 -907 102 -462 258 -948 442
-1381 73 -172 204 -446 213 -446 4 0 75 39 158 87 349 199 1682 965 1686 969
2 1 -33 88 -77 191 -247 574 -388 1123 -447 1737 -8 88 -16 160 -18 161 -1 1
-36 -27 -77 -62z"/>
<path d="M10474 8928 l-301 -480 301 -463 301 -464 6 92 c4 51 7 156 8 234 1
139 2 143 24 148 12 3 293 6 624 7 331 2 604 6 608 9 4 5 -517 888 -542 918
-1 2 -161 -1 -354 -8 -192 -7 -352 -12 -354 -10 -2 2 -7 115 -12 250 l-8 246
-301 -479z"/>
<path d="M15110 6045 l0 -85 205 0 205 0 0 85 0 85 -205 0 -205 0 0 -85z"/>
<path d="M16250 5435 l0 -65 160 0 160 0 0 65 0 65 -160 0 -160 0 0 -65z"/>
<path d="M9052 2678 l3 -823 3353 -3 3352 -2 0 825 0 825 -3355 0 -3355 0 2
-822z m970 423 c20 -6 58 -26 85 -44 156 -104 144 -366 -20 -449 -23 -11 -44
-22 -46 -24 -3 -3 130 -244 167 -301 l14 -23 -150 0 -151 0 -78 148 -78 147
-3 -147 -3 -148 -134 0 -135 0 0 431 0 431 248 -5 c143 -3 262 -9 284 -16z
m948 -91 l0 -110 -155 0 -155 0 0 -50 0 -50 135 0 135 0 0 -105 0 -105 -135 0
-136 0 3 -57 3 -58 153 -3 152 -3 0 -104 0 -105 -285 0 -285 0 0 430 0 430
285 0 285 0 0 -110z m731 94 c132 -39 241 -153 264 -277 l7 -37 -141 0 c-131
0 -142 1 -153 21 -36 57 -144 80 -197 42 -85 -62 -96 -237 -20 -312 57 -57
155 -50 206 14 l28 35 142 0 142 0 -15 -52 c-61 -208 -268 -323 -503 -278
-125 24 -246 122 -292 237 -21 51 -24 75 -24 194 l0 135 38 76 c52 107 144
183 251 209 58 13 210 10 267 -7z m777 -136 c36 -81 68 -145 72 -143 3 2 35
69 70 149 l64 146 148 0 c102 0 148 -3 148 -11 0 -6 -67 -142 -150 -302 l-150
-290 0 -128 0 -129 -135 0 -135 0 0 131 c0 130 0 131 -34 192 -18 34 -88 169
-155 300 l-122 238 157 -3 157 -3 65 -147z m1264 109 c49 -24 90 -53 113 -79
40 -48 81 -127 91 -175 l7 -33 -139 0 -138 0 -37 36 c-41 40 -94 56 -143 43
-127 -35 -146 -286 -26 -350 62 -34 139 -17 181 40 l23 31 138 0 c136 0 138 0
138 -22 0 -39 -59 -151 -103 -196 -83 -86 -214 -130 -350 -119 -90 8 -147 27
-214 73 -238 163 -219 600 31 744 73 41 114 49 242 47 105 -2 113 -4 186 -40z
m668 -287 l0 -330 130 0 130 0 0 -100 0 -100 -265 0 -265 0 0 430 0 430 135 0
135 0 0 -330z m1010 220 l0 -110 -150 0 -150 0 0 -50 0 -50 130 0 130 0 0
-105 0 -105 -130 0 -130 0 0 -60 0 -60 150 0 150 0 0 -105 0 -105 -285 0 -285
0 0 430 0 430 285 0 285 0 0 -110z"/>
<path d="M9762 2818 l3 -73 45 -3 c68 -5 118 13 127 46 19 73 -12 102 -109
102 l-69 0 3 -72z"/>
</g>
</svg>
